<svg xmlns="http://www.w3.org/2000/svg" version="1.1" xmlns:xlink="http://www.w3.org/1999/xlink" xmlns:svgjs="http://svgjs.com/svgjs" width="1440" height="560" preserveAspectRatio="none" viewBox="0 0 1440 560"><g mask="url(&quot;#SvgjsMask1020&quot;)" fill="none"><path d="M1055.51,391.062C1097.538,393.646,1141.636,374.187,1159.827,336.212C1176.489,301.431,1151.552,265.06,1131.712,231.989C1112.736,200.357,1092.38,163.456,1055.51,162.323C1017.425,161.152,988.292,193.222,970.738,227.041C954.677,257.983,955.263,293.65,971.269,324.62C988.868,358.672,1017.251,388.71,1055.51,391.062" fill="rgba(28, 83, 142, 0.44)" class="triangle-float2"></path><path d="M1004.266,423.676C1061.136,421.15,1099.447,372.541,1128.015,323.302C1156.727,273.814,1180.227,216.244,1154.169,165.308C1126.217,110.669,1065.623,79.96,1004.266,81.403C945.238,82.791,895.293,120.763,866.099,172.084C837.262,222.778,831.812,284.092,859.886,335.213C889.005,388.237,943.832,426.361,1004.266,423.676" fill="rgba(28, 83, 142, 0.44)" class="triangle-float3"></path><path d="M935.591,209.742C955.609,209.951,969.221,191.071,977.943,173.052C985.444,157.557,984.719,140.102,976.668,124.885C967.98,108.465,954.106,94.523,935.591,93.002C914.317,91.254,890.667,98.043,880.881,117.014C871.564,135.075,884.419,154.678,894.746,172.182C904.82,189.256,915.768,209.535,935.591,209.742" fill="rgba(28, 83, 142, 0.44)" class="triangle-float3"></path><path d="M1117.549,78.1C1141.896,79.502,1170.718,79.067,1182.736,57.847C1194.672,36.772,1179.875,12.12,1166.264,-7.914C1154.758,-24.85,1137.943,-36.283,1117.549,-38.104C1092.834,-40.311,1063.756,-39.495,1051.009,-18.206C1038.075,3.395,1049.873,30.307,1064.185,51.021C1076.338,68.61,1096.205,76.871,1117.549,78.1" fill="rgba(28, 83, 142, 0.44)" class="triangle-float3"></path><path d="M1445.942,409.087C1499.949,408.148,1557.182,393.929,1583.751,346.9C1610.004,300.431,1590.496,245.493,1564.794,198.717C1537.778,149.55,1502.04,95.684,1445.942,96.096C1390.236,96.505,1357.743,152.09,1330.073,200.439C1302.666,248.327,1272.79,303.602,1299.578,351.839C1326.837,400.926,1389.802,410.063,1445.942,409.087" fill="rgba(28, 83, 142, 0.44)" class="triangle-float2"></path><path d="M87.182,770.699C143.366,773.551,199.529,748.761,228.002,700.242C256.786,651.192,250.49,590.324,221.877,541.174C193.456,492.352,143.643,460.207,87.182,458.345C27.227,456.368,-36.318,478.446,-63.83,531.753C-89.85,582.171,-61.188,639.141,-30.877,687.102C-3.266,730.79,35.566,768.079,87.182,770.699" fill="rgba(28, 83, 142, 0.44)" class="triangle-float2"></path><path d="M288.732,92.22C313.927,93.423,337.339,78.188,349.335,55.999C360.798,34.797,357.579,9.069,344.701,-11.304C332.705,-30.282,311.182,-40.032,288.732,-39.877C266.575,-39.724,245.018,-29.814,234.086,-10.54C223.284,8.505,227.105,31.323,237.385,50.655C248.467,71.494,265.157,91.095,288.732,92.22" fill="rgba(28, 83, 142, 0.44)" class="triangle-float2"></path><path d="M1347.054,489.515C1389.294,489.997,1433.273,476.243,1454.224,439.562C1475.043,403.112,1463.636,358.848,1442.351,322.668C1421.426,287.099,1388.321,257.657,1347.054,257.391C1305.396,257.123,1270.318,285.281,1249.606,321.426C1229.024,357.344,1223.276,401.349,1244.039,437.163C1264.745,472.879,1305.773,489.044,1347.054,489.515" fill="rgba(28, 83, 142, 0.44)" class="triangle-float2"></path><path d="M689.74,467.958C715.398,468.65,739.205,454.007,751.693,431.583C763.862,409.731,761.795,383.09,748.954,361.626C736.466,340.753,714.06,327.671,689.74,328.029C666.012,328.378,645.098,342.639,633.468,363.325C622.076,383.587,622.307,407.917,633.317,428.389C644.979,450.073,665.128,467.294,689.74,467.958" fill="rgba(28, 83, 142, 0.44)" class="triangle-float2"></path></g><defs><mask id="SvgjsMask1020"><rect width="1440" height="560" fill="#ffffff"></rect></mask><style>
            @keyframes float1 {
                0%{transform: translate(0, 0)}
                50%{transform: translate(-10px, 0)}
                100%{transform: translate(0, 0)}
            }

            .triangle-float1 {
                animation: float1 5s infinite;
            }

            @keyframes float2 {
                0%{transform: translate(0, 0)}
                50%{transform: translate(-5px, -5px)}
                100%{transform: translate(0, 0)}
            }

            .triangle-float2 {
                animation: float2 4s infinite;
            }

            @keyframes float3 {
                0%{transform: translate(0, 0)}
                50%{transform: translate(0, -10px)}
                100%{transform: translate(0, 0)}
            }

            .triangle-float3 {
                animation: float3 6s infinite;
            }
        </style></defs></svg>