<svg xmlns="http://www.w3.org/2000/svg" version="1.1" xmlns:xlink="http://www.w3.org/1999/xlink" xmlns:svgjs="http://svgjs.com/svgjs" width="1440" height="250" preserveAspectRatio="none" viewBox="0 0 1440 250"><g mask="url(&quot;#SvgjsMask1090&quot;)" fill="none"><path d="M28 250L278 0L626 0L376 250z" fill="url(#SvgjsLinearGradient1091)"></path><path d="M280.6 250L530.6 0L784.1 0L534.1 250z" fill="url(#SvgjsLinearGradient1091)"></path><path d="M504.20000000000005 250L754.2 0L907.2 0L657.2 250z" fill="url(#SvgjsLinearGradient1091)"></path><path d="M735.8000000000001 250L985.8000000000001 0L1093.8000000000002 0L843.8000000000001 250z" fill="url(#SvgjsLinearGradient1091)"></path><path d="M1422 250L1172 0L839 0L1089 250z" fill="url(#SvgjsLinearGradient1092)"></path><path d="M1186.4 250L936.4000000000001 0L690.4000000000001 0L940.4000000000001 250z" fill="url(#SvgjsLinearGradient1092)"></path><path d="M938.8 250L688.8 0L438.29999999999995 0L688.3 250z" fill="url(#SvgjsLinearGradient1092)"></path><path d="M713.1999999999999 250L463.19999999999993 0L118.19999999999993 0L368.19999999999993 250z" fill="url(#SvgjsLinearGradient1092)"></path><path d="M1193.0632275044015 250L1440 3.0632275044015103L1440 250z" fill="url(#SvgjsLinearGradient1091)"></path><path d="M0 250L246.9367724955985 250L 0 3.0632275044015103z" fill="url(#SvgjsLinearGradient1092)"></path></g><defs><mask id="SvgjsMask1090"><rect width="1440" height="250" fill="#ffffff"></rect></mask><linearGradient x1="0%" y1="100%" x2="100%" y2="0%" id="SvgjsLinearGradient1091"><stop stop-color="rgba(0, 0, 0, 0.18)" offset="0"></stop><stop stop-opacity="0" stop-color="rgba(0, 0, 0, 0.18)" offset="0.66"></stop></linearGradient><linearGradient x1="100%" y1="100%" x2="0%" y2="0%" id="SvgjsLinearGradient1092"><stop stop-color="rgba(0, 0, 0, 0.18)" offset="0"></stop><stop stop-opacity="0" stop-color="rgba(0, 0, 0, 0.18)" offset="0.66"></stop></linearGradient></defs></svg>