<svg xmlns="http://www.w3.org/2000/svg" version="1.1" xmlns:xlink="http://www.w3.org/1999/xlink" xmlns:svgjs="http://svgjs.com/svgjs" width="1440" height="560" preserveAspectRatio="none" viewBox="0 0 1440 560"><g mask="url(&quot;#SvgjsMask1018&quot;)" fill="none"><path d="M-113.01 429.32C31.95 427.3 159.6 255.03 440.29 255.72 720.98 256.41 828.83 603.47 993.59 619.25" stroke="rgba(51, 121, 194, 0.5)" stroke-width="2"></path><path d="M-223.39 68.25C-119.84 68.5-19.26 138.25 184.86 138.25 388.99 138.25 361.84 54.69 593.11 68.25 824.38 81.81 847.4 523.05 1001.36 576.51" stroke="rgba(51, 121, 194, 0.5)" stroke-width="2"></path><path d="M-223.09 491.24C-24.56 488.56 247.96 255.59 535.49 256.04 823.02 256.49 781.01 623.61 914.78 658.66" stroke="rgba(51, 121, 194, 0.5)" stroke-width="2"></path><path d="M-97.46 145.49C59.38 149.26 173.5 361.09 488.73 369.49 803.95 377.89 916.5 606.15 1074.91 610.81" stroke="rgba(51, 121, 194, 0.5)" stroke-width="2"></path><path d="M-5.05 187.42C112.92 187.61 228.28 257.42 461.62 257.42 694.95 257.42 674.43 179.03 928.28 187.42 1182.14 195.81 1233.65 620.3 1394.95 658.8" stroke="rgba(51, 121, 194, 0.5)" stroke-width="2"></path></g><defs><mask id="SvgjsMask1018"><rect width="1440" height="560" fill="#ffffff"></rect></mask></defs></svg>