<svg xmlns="http://www.w3.org/2000/svg" version="1.1" xmlns:xlink="http://www.w3.org/1999/xlink" xmlns:svgjs="http://svgjs.com/svgjs" width="1440" height="250" preserveAspectRatio="none" viewBox="0 0 1440 250"><g mask="url(&quot;#SvgjsMask1015&quot;)" fill="none"><path d="M42 250L292 0L605.5 0L355.5 250z" fill="url(#SvgjsLinearGradient1016)"></path><path d="M277.6 250L527.6 0L613.1 0L363.1 250z" fill="url(#SvgjsLinearGradient1016)"></path><path d="M493.20000000000005 250L743.2 0L860.2 0L610.2 250z" fill="url(#SvgjsLinearGradient1016)"></path><path d="M750.8000000000001 250L1000.8000000000001 0L1269.3000000000002 0L1019.3000000000001 250z" fill="url(#SvgjsLinearGradient1016)"></path><path d="M1393 250L1143 0L1012.5 0L1262.5 250z" fill="url(#SvgjsLinearGradient1017)"></path><path d="M1199.4 250L949.4000000000001 0L821.9000000000001 0L1071.9 250z" fill="url(#SvgjsLinearGradient1017)"></path><path d="M941.8 250L691.8 0L489.29999999999995 0L739.3 250z" fill="url(#SvgjsLinearGradient1017)"></path><path d="M725.1999999999999 250L475.19999999999993 0L434.69999999999993 0L684.6999999999999 250z" fill="url(#SvgjsLinearGradient1017)"></path><path d="M1312.560559794828 250L1440 122.56055979482797L1440 250z" fill="url(#SvgjsLinearGradient1016)"></path><path d="M0 250L127.43944020517203 250L 0 122.56055979482797z" fill="url(#SvgjsLinearGradient1017)"></path></g><defs><mask id="SvgjsMask1015"><rect width="1440" height="250" fill="#ffffff"></rect></mask><linearGradient x1="0%" y1="100%" x2="100%" y2="0%" id="SvgjsLinearGradient1016"><stop stop-color="rgba(62, 71, 155, 0.16)" offset="0"></stop><stop stop-opacity="0" stop-color="rgba(62, 71, 155, 0.16)" offset="0.66"></stop></linearGradient><linearGradient x1="100%" y1="100%" x2="0%" y2="0%" id="SvgjsLinearGradient1017"><stop stop-color="rgba(62, 71, 155, 0.16)" offset="0"></stop><stop stop-opacity="0" stop-color="rgba(62, 71, 155, 0.16)" offset="0.66"></stop></linearGradient></defs></svg>